<?xml version="1.0" ?>
<!DOCTYPE svg  PUBLIC '-//W3C//DTD SVG 1.1//EN'  'http://www.w3.org/Graphics/SVG/1.1/DTD/svg11.dtd'>
<!-- Uploaded to: SVG Repo, www.svgrepo.com, Generator: SVG Repo Mixer Tools -->
<svg fill="#000000" width="800px" height="800px" viewBox="0 0 50 50" enable-background="new 0 0 50 50" version="1.1" xml:space="preserve" xmlns="http://www.w3.org/2000/svg" xmlns:xlink="http://www.w3.org/1999/xlink">
<g id="Layer_23"/>
<g id="Layer_22">
<path clip-rule="evenodd" d="M18.162,42.619c9.098-0.214,11.562-6.474,14.384-14.179l2.413,0.884   c-3.244,8.847-6.394,15.616-16.736,15.858L18.162,42.619z M30.43,12.606l-0.736,5.947l4.695-2.861l0.602,4.451l3.875-2.335   l2.609,6.807c2.014-5.858,3.659-11.012-1.848-15.68C40.478,5.187,39.825,2.04,38.908,0l-3.099,0.896   c0.62,1.528,0.76,4.047,0.224,5.898c-6.17-2.341-10.151,3.404-12.834,8.048L30.43,12.606z M27.381,16.303l-6.111,1.808   c-2.004,3.21-4.274,6.112-7.066,8.689C-6.139,45.579,19.477,58.344,32.69,43.53c3.651-4.093,5.707-9.76,7.521-15.156l-2.596-6.37   l-4.619,2.494l-0.621-4.571l-5.887,3.587L27.381,16.303z" fill-rule="evenodd"/>
</g>
<g id="Layer_21"/>
<g id="Layer_20"/>
<g id="Layer_19"/>
<g id="Layer_18"/>
<g id="Layer_17"/>
<g id="Layer_16"/>
<g id="Layer_15"/>
<g id="Layer_14"/>
<g id="Layer_13"/>
<g id="Layer_12"/>
<g id="Layer_11"/>
<g id="Layer_10"/>
<g id="Layer_9"/>
<g id="Layer_8"/>
<g id="Layer_7"/>
<g id="Layer_6"/>
<g id="Layer_5"/>
<g id="Layer_4"/>
<g id="Layer_3"/>
<g id="Layer_2"/>
</svg>