<?xml version="1.0" encoding="iso-8859-1"?>
<!-- Uploaded to: SVG Repo, www.svgrepo.com, Generator: SVG Repo Mixer Tools -->
<svg fill="#000000" height="800px" width="800px" version="1.1" id="Capa_1" xmlns="http://www.w3.org/2000/svg" xmlns:xlink="http://www.w3.org/1999/xlink" 
	 viewBox="0 0 612 612" xml:space="preserve">
<g>
	<g>
		<path d="M465.447,270.09l0.03-0.676c0-66.689-45.216-120.946-100.791-120.946c-13.505,0-26.388,3.226-38.169,9.032
			c3.805-13.115,9.053-29.875,15.446-46.95c24.447-65.297,42.561-74.23,45.944-75.358c9.461-3.153,14.575-13.379,11.42-22.839
			c-3.152-9.46-13.386-14.578-22.839-11.42c-24.639,8.212-46.994,39.926-68.345,96.954c-8.816,23.547-15.488,46.167-19.47,60.726
			c-12.363-6.509-26.007-10.146-40.35-10.146c-55.577,0-100.791,54.257-100.791,120.946v0.338l20.808,221.644
			c0.058,32.624,8.398,62.515,23.5,84.2C208.187,599.072,231.943,612,258.728,612c17.669,0,34.002-5.658,47.777-16.226
			C320.281,606.34,336.614,612,354.283,612c26.785,0,50.54-12.928,66.889-36.404c15.101-21.685,23.443-51.576,23.5-84.2
			L465.447,270.09z"/>
		<path d="M138.692,483.795l-0.004-0.328l-20.814-206.37v-1.647c0-33.01,10.689-64.749,30.097-89.371
			c2.818-3.575,5.108-9.815,2.284-15.64c-1.783-3.679-6.068-8.063-16.35-8.063c-55.577,0-100.791,50.725-100.791,113.073v0.364
			l20.806,206.304c0.066,30.538,8.456,58.512,23.643,78.809c16.591,22.177,39.672,33.899,66.744,33.899
			c7.186,0,19.212,0,23.099-8.319c2.256-4.826,0.881-10.285-4.085-16.226C147.595,551.464,139.076,521.557,138.692,483.795z"/>
		<path d="M478.095,162.377c-10.282,0-14.568,4.384-16.35,8.063c-2.824,5.824-0.534,12.066,2.282,15.638
			c19.41,24.623,30.099,56.364,30.099,89.372v1.647l-20.782,206.047l-0.036,0.651c-0.386,37.762-8.902,67.669-24.629,86.485
			c-4.968,5.943-6.343,11.403-4.086,16.227c3.887,8.319,15.914,8.319,23.099,8.319c27.073,0,50.153-11.722,66.744-33.899
			c15.187-20.297,23.577-48.271,23.643-78.809l20.77-205.943l0.036-0.725C578.886,213.103,533.67,162.377,478.095,162.377z"/>
	</g>
</g>
</svg>